<!-- filepath: images/icons.svg -->
<svg xmlns="http://www.w3.org/2000/svg" style="display:none;">
  <symbol id="linkedin-icon" viewBox="0 0 24 24" fill="currentColor">
    <title>LinkedIn</title>
    <path d="M19 0h-14c-2.76 0-5 2.24-5 5v14c0 2.76 2.24 5 5 5h14c2.76 0 5-2.24 5-5v-14c0-2.76-2.24-5-5-5zm-11 19h-3v-9h3v9zm-1.5-10.28c-.97 0-1.75-.79-1.75-1.75s.78-1.75 1.75-1.75 1.75.79 1.75 1.75-.78 1.75-1.75 1.75zm15.5 10.28h-3v-4.5c0-1.08-.02-2.47-1.5-2.47-1.5 0-1.73 1.17-1.73 2.39v4.58h-3v-9h2.88v1.23h.04c.4-.76 1.37-1.56 2.82-1.56 3.01 0 3.57 1.98 3.57 4.56v4.77z"/>
  </symbol>
</svg>